<svg width="28" height="18" viewBox="0 0 28 18" fill="none" xmlns="http://www.w3.org/2000/svg">
<path fill-rule="evenodd" clip-rule="evenodd" d="M1.8125 0.250031C1.29473 0.250031 0.875 0.669764 0.875 1.18753V8.21878V16.1875C0.875 16.7053 1.29473 17.125 1.8125 17.125H9.54688C10.8522 17.125 12.1041 16.6065 13.0272 15.6834C13.9502 14.7604 14.4688 13.5085 14.4688 12.2032C14.4688 10.8978 13.9502 9.6459 13.0272 8.72287C12.5739 8.26963 12.0414 7.91392 11.4622 7.66924C12.189 6.85538 12.5938 5.80014 12.5938 4.70316C12.5938 3.52211 12.1246 2.38944 11.2895 1.55432C10.4543 0.719198 9.32167 0.250031 8.14062 0.250031H1.8125ZM2.75 15.25V9.15628H8.14062H9.54688C10.355 9.15628 11.1299 9.47729 11.7013 10.0487C12.2727 10.6201 12.5938 11.3951 12.5938 12.2032C12.5938 13.0112 12.2727 13.7862 11.7013 14.3576C11.1299 14.929 10.355 15.25 9.54688 15.25H2.75ZM2.75 7.28128H8.14062C8.82439 7.28128 9.48014 7.00966 9.96363 6.52617C10.4471 6.04267 10.7188 5.38692 10.7188 4.70316C10.7188 4.01939 10.4471 3.36364 9.96363 2.88015C9.48014 2.39665 8.82439 2.12503 8.14062 2.12503H2.75V7.28128ZM16.8125 3.06253C16.8125 2.54476 17.2322 2.12503 17.75 2.12503H25.25C25.7678 2.12503 26.1875 2.54476 26.1875 3.06253C26.1875 3.5803 25.7678 4.00003 25.25 4.00003H17.75C17.2322 4.00003 16.8125 3.5803 16.8125 3.06253ZM18.8609 6.56064C20.0051 5.94762 21.3265 5.75013 22.6 6.00179C23.8734 6.25345 25.0203 6.9387 25.8454 7.94088C26.6704 8.94307 27.1226 10.2002 27.125 11.4983C27.1255 11.7473 27.0269 11.9862 26.851 12.1623C26.6752 12.3385 26.4364 12.4375 26.1875 12.4375H17.8907C17.9042 12.4903 17.9189 12.5428 17.9348 12.5951C18.1861 13.4223 18.7163 14.1368 19.4351 14.617C20.154 15.0973 21.0171 15.3135 21.8774 15.2289C22.7378 15.1444 23.5422 14.7642 24.1538 14.1532C24.5201 13.7873 25.1137 13.7876 25.4796 14.1539C25.8456 14.5201 25.8453 15.1137 25.479 15.4797C24.5607 16.3971 23.3527 16.9679 22.0608 17.0949C20.769 17.2219 19.473 16.8972 18.3936 16.1761C17.3142 15.4551 16.5181 14.3821 16.1408 13.1401C16.0004 12.678 15.9212 12.2031 15.9027 11.7272C15.8846 11.6544 15.875 11.5784 15.875 11.5C15.875 11.4205 15.8849 11.3433 15.9035 11.2696C15.9312 10.6194 16.072 9.97424 16.3243 9.36395C16.8202 8.16432 17.7167 7.17367 18.8609 6.56064ZM17.8951 10.5625H25.1283C24.9922 10.0422 24.7444 9.55361 24.3978 9.1326C23.8483 8.46517 23.0846 8.00881 22.2365 7.84122C21.3884 7.67362 20.5084 7.80514 19.7463 8.2134C18.9843 8.62165 18.3873 9.2814 18.057 10.0803C17.9919 10.2379 17.9379 10.3991 17.8951 10.5625Z" fill="#5BD424"/>
</svg>
