<svg width="22" height="22" viewBox="0 0 22 22" fill="none" xmlns="http://www.w3.org/2000/svg">
<path d="M4.23285 4.23284C4.23285 4.23284 8.56399 2.06856 10.7291 0.985127C11.1232 0.790866 11.5595 0.69806 11.9986 0.715127C12.6551 0.755413 13.436 1.39056 13.436 1.39056L21.2857 9.24113V17.6317H17.6317V21.2857H9.10485L1.39056 13.5714C0.973993 13.1428 0.714279 12.5386 0.714279 11.9471C0.714279 11.6737 0.868565 11.246 0.985136 11L4.23285 4.23284ZM4.81485 4.81484V14.918C4.81657 15.3834 4.83285 15.7957 5.24171 16.2106L9.46057 20.4286H16.7746V16.7746L4.81485 4.81484ZM15.1477 4.2337C14.3771 3.4657 13.5971 2.70798 12.7991 1.96827C12.5403 1.73941 12.3131 1.56713 11.882 1.57227C11.5649 1.58427 11.1363 1.73941 11.1363 1.73941L6.14942 4.23284L15.1477 4.2337Z" fill="white"/>
</svg>
