<svg width="22" height="24" viewBox="0 0 22 24" fill="none" xmlns="http://www.w3.org/2000/svg">
<path d="M21.0313 6.28124L21.0875 6.24374C20.975 6.03749 20.8063 5.84999 20.6375 5.75624L11.5813 0.543726C11.4313 0.449976 11.225 0.412476 11 0.412476C10.775 0.412476 10.5688 0.468726 10.4187 0.543726L1.41873 5.77499C1.09997 5.96249 0.874974 6.43124 0.874974 6.78749V17.2313C0.874974 17.4375 0.912474 17.6625 1.04372 17.8688L1.00622 17.8875C1.09997 18.0375 1.23123 18.1688 1.36248 18.2438L10.4 23.475C10.55 23.5688 10.7563 23.6063 10.9813 23.6063C11.2063 23.6063 11.4125 23.55 11.5625 23.475L20.5625 18.2438C20.8813 18.0563 21.1063 17.5875 21.1063 17.2313V6.76874C21.125 6.61874 21.1063 6.44999 21.0313 6.28124ZM11 19.4063C6.91249 19.4063 3.59373 16.0875 3.59373 12C3.59373 7.9125 6.91249 4.59374 11 4.59374C13.7563 4.59374 16.1563 6.11249 17.4313 8.34375L14.9938 9.75C14.2063 8.34375 12.7063 7.40624 11 7.40624C8.46874 7.40624 6.40624 9.46875 6.40624 12C6.40624 14.5313 8.46874 16.5938 11 16.5938C12.7063 16.5938 14.2063 15.6563 14.9938 14.2688L17.4125 15.6938C16.1375 17.9063 13.7375 19.4063 11 19.4063ZM20.5625 11.625H19.9625L19.7938 12.375H20.5625V13.3125H19.625L19.4 14.4375H18.4813L18.7063 13.3125H17.9938L17.7688 14.4375H16.8688L17.0938 13.3125H16.625V12.375H17.2813L17.45 11.625H16.625V10.6875H17.6188L17.8438 9.5625H18.7625L18.5375 10.6875H19.25L19.475 9.5625H20.375L20.15 10.6875H20.5625V11.625ZM18.1813 12.375H18.8938L19.0625 11.625H18.35L18.1813 12.375Z" fill="white"/>
</svg>
