<svg width="16" height="24" viewBox="0 0 16 24" fill="none" xmlns="http://www.w3.org/2000/svg">
<path d="M0.764557 20.7322V17.8269L2.98493 17.7381C5.29399 17.6494 7.00681 17.4591 9.51874 17.0276C12.3734 16.5328 15.1899 15.6448 15.4818 15.1372C15.5579 15.0103 15.6086 15.9874 15.6086 17.8777V20.8211L15.2786 21.0748C14.9234 21.354 13.5532 21.8235 11.9928 22.2167C9.55681 22.8257 3.60649 23.625 1.57662 23.625H0.764745L0.764557 20.7322ZM0.764557 13.3738V10.4681L2.98493 10.392C5.44624 10.2906 7.36193 10.0749 9.89937 9.60543C12.7413 9.07255 15.3294 8.20986 15.5199 7.74036C15.5579 7.65168 15.596 8.88224 15.596 10.4809C15.6086 13.0183 15.5832 13.4242 15.3929 13.6271C14.9489 14.1221 11.5233 15.0101 7.99624 15.5557C5.85218 15.8857 2.29981 16.2664 1.30999 16.2664H0.764557V13.3738ZM0.764557 6.06599V3.22405L1.15793 3.14793C1.37356 3.10986 1.90643 3.0718 2.33787 3.0718C4.46918 3.0718 9.53149 2.37393 12.0181 1.73961C13.7562 1.28286 14.9615 0.826114 15.3802 0.445489C15.5958 0.255177 15.6086 0.369364 15.6086 3.16049C15.6086 5.88824 15.596 6.09111 15.3676 6.29436C15.0251 6.61143 12.6779 7.33461 10.8507 7.70249C7.89481 8.28618 2.98493 8.90793 1.31018 8.90793H0.764557V6.06599Z" fill="white"/>
</svg>
