<svg width="22" height="21" viewBox="0 0 22 21" fill="none" xmlns="http://www.w3.org/2000/svg">
<path d="M6.092 18.4375C10.7533 19.0735 15.3313 19.699 20 20.3365C18.4093 17.6882 16.8597 15.1075 15.2975 12.5058C12.2367 14.4783 9.20375 16.432 6.092 18.4375ZM21.3162 3.77875C20.9052 4.396 20.4935 5.0125 20.0833 5.62975C18.674 7.75 17.2647 9.87025 15.857 11.9913C15.7782 12.1098 15.677 12.2035 15.7872 12.385C17.1477 14.6313 18.497 16.8843 19.85 19.135C20.0637 19.4905 20.279 19.8445 20.5557 20.1857C20.8287 14.7227 21.1025 9.25975 21.3762 3.79675C21.356 3.79075 21.3357 3.784 21.3162 3.77875ZM2.74625 10.7822C2.81 10.843 2.96825 10.8775 3.0425 10.8415C4.3475 10.2003 5.66075 9.57325 6.9365 8.87875C7.35275 8.65225 7.673 8.24725 8.0315 7.918C9.21875 6.829 10.4045 5.73775 11.5895 4.6465C11.6622 4.57975 11.7478 4.5145 11.7913 4.4305C12.2172 3.59875 12.635 2.7625 13.0685 1.90225C12.5517 1.708 12.0628 1.51825 11.567 1.34575C11.5003 1.3225 11.3937 1.369 11.321 1.4095C10.1735 2.05 9.005 2.65675 7.89425 3.35575C7.3385 3.70525 6.8855 4.22125 6.3935 4.66975C5.6 5.3935 4.808 6.1195 4.0265 6.856C3.81875 7.05175 3.62975 7.2745 3.4685 7.51C2.93375 8.2885 2.4155 9.07825 1.87325 9.88975C2.17625 10.204 2.45225 10.504 2.747 10.783L2.74625 10.7822ZM7.51475 9.71875C6.866 12.4608 6.22025 15.1878 5.5535 18.004C8.6795 15.9895 11.7343 14.0215 14.768 12.067C12.3538 11.2855 9.947 10.5063 7.51475 9.7195V9.71875ZM20.519 3.805C17.8775 4.246 15.299 4.67725 12.6875 5.113C13.577 7.27675 14.4485 9.397 15.3455 11.578C17.0802 8.97175 18.7805 6.418 20.5198 3.805H20.519ZM7.6235 9.15775C10.0025 9.93025 12.3335 10.687 14.7327 11.4655C13.8417 9.295 12.9815 7.20025 12.1033 5.062C10.607 6.43 9.134 7.777 7.6235 9.15775ZM2.8445 12.3813C2.00075 14.398 1.18625 16.3458 0.35675 18.3288C1.95125 18.2815 3.497 18.2358 5.09525 18.1885C4.3445 16.252 3.60875 14.3538 2.8445 12.3813ZM5.15075 16.81C5.17025 16.8062 5.18975 16.801 5.21 16.7973C5.7785 14.4318 6.356 12.082 6.93725 9.6235C5.64125 10.297 4.40525 10.939 3.1355 11.5997C3.7835 13.2842 4.4735 15.061 5.15075 16.81ZM19.5627 3.42175C18.806 3.2215 18.0492 3.0205 17.2925 2.821C16.2042 2.53525 15.1153 2.2525 14.0278 1.96375C13.892 1.92775 13.7937 1.90375 13.7135 2.068C13.3295 2.8555 12.9327 3.637 12.5427 4.4215C12.5307 4.4455 12.533 4.477 12.524 4.53775C14.8805 4.18075 17.2213 3.826 19.5613 3.47125C19.562 3.45475 19.562 3.43825 19.5627 3.42175ZM15.173 1.63075C17.2048 2.19325 19.2373 2.755 21.3403 3.337C20.9862 2.329 20.6585 1.3945 20.321 0.433001C18.5938 0.816251 16.8883 1.19425 15.182 1.57225C15.179 1.59175 15.176 1.61125 15.173 1.63075ZM5.67425 18.892C4.91 18.8042 4.12625 18.8853 3.3515 18.898C2.71475 18.9092 2.07875 18.9333 1.44275 18.9528C1.37675 18.955 1.3115 18.9677 1.24625 19.0382C6.5075 19.525 11.7687 20.011 17.0292 20.4977C17.033 20.4745 17.036 20.4505 17.0397 20.4272C15.353 20.197 13.667 19.9667 11.9802 19.7365C9.87875 19.4492 7.781 19.135 5.67425 18.892ZM0.46025 16.5137C1.13825 14.941 1.81325 13.366 2.49425 11.7948C2.5625 11.6372 2.55725 11.53 2.42375 11.4033C2.13875 11.1325 1.87475 10.84 1.5635 10.5167C1.14275 12.5942 0.7325 14.6193 0.32225 16.645C0.33725 16.6518 0.353 16.6593 0.368 16.6667C0.3995 16.6165 0.43775 16.5685 0.461 16.5145L0.46025 16.5137ZM13.8223 1.21525C14.9653 0.920501 16.1255 0.689501 17.2782 0.432251C17.3525 0.415751 17.426 0.391001 17.4995 0.370001C17.4958 0.351251 17.492 0.332501 17.4882 0.313751C15.8645 0.532001 14.24 0.751001 12.5338 0.980501C12.9987 1.18375 13.3573 1.3345 13.8223 1.21525Z" fill="white"/>
</svg>
