<svg width="20" height="20" viewBox="0 0 20 20" fill="none" xmlns="http://www.w3.org/2000/svg">
<path d="M9.88321 0.486239C9.10804 0.489824 8.36776 0.555953 7.71639 0.671212C5.79754 1.01021 5.44916 1.71976 5.44916 3.02829V4.75646H9.98363V5.33252H5.44916H3.74741C2.42957 5.33252 1.27563 6.12462 0.91469 7.63146C0.498353 9.35865 0.479885 10.4365 0.91469 12.2399C1.23702 13.5823 2.00677 14.5389 3.32462 14.5389H4.88367V12.4672C4.88367 10.9705 6.17863 9.6503 7.71639 9.6503H12.2456C13.5063 9.6503 14.5128 8.61223 14.5128 7.34607V3.02829C14.5128 1.79942 13.4761 0.876305 12.2456 0.671212C11.4666 0.541545 10.6584 0.482638 9.88321 0.486239ZM7.43101 1.87618C7.89938 1.87618 8.28188 2.26492 8.28188 2.7429C8.28188 3.2192 7.89938 3.60435 7.43101 3.60435C6.96095 3.60435 6.58013 3.2192 6.58013 2.7429C6.58013 2.26492 6.96095 1.87618 7.43101 1.87618ZM15.0783 5.33252V7.34607C15.0783 8.90716 13.7548 10.2211 12.2456 10.2211H7.71639C6.47577 10.2211 5.44916 11.2829 5.44916 12.5253V16.8431C5.44916 18.072 6.51774 18.7948 7.71639 19.1473C9.15175 19.5694 10.5282 19.6456 12.2456 19.1473C13.3871 18.8168 14.5128 18.1516 14.5128 16.8431V15.1149H9.98363V14.5389H14.5128H16.78C18.0979 14.5389 18.589 13.6196 19.0473 12.2399C19.5207 10.8195 19.5005 9.45357 19.0473 7.63146C18.7216 6.31954 18.0996 5.33252 16.78 5.33252H15.0783ZM12.531 16.267C13.001 16.267 13.3818 16.6522 13.3818 17.1285C13.3818 17.6065 13.001 17.9952 12.531 17.9952C12.0626 17.9952 11.6801 17.6065 11.6801 17.1285C11.6801 16.6522 12.0626 16.267 12.531 16.267Z" fill="white"/>
</svg>
