<svg width="18" height="24" viewBox="0 0 18 24" fill="none" xmlns="http://www.w3.org/2000/svg">
<path d="M0.669189 5.06249L2.1855 21.9223L8.98969 23.7377L15.8128 21.9566L17.3308 5.06249H0.669189ZM14.1769 8.9008L14.0818 9.99468L14.04 10.5H6.05831L6.249 12.75H13.8503L13.7994 13.1683L13.3091 18.5887L13.2731 18.9056L9 20.0557V20.0548L8.99494 20.0571L4.72425 18.9478L4.43438 15.75H6.52838L6.67669 17.3362L8.99888 17.9248L9 17.8809V17.8832L11.3273 17.3865L11.5703 14.8125H4.34119L3.82856 9.03074L3.7785 8.43749H14.2268L14.1769 8.9008ZM2.24175 0.305054H3.29588V1.3468H4.26038V0.305054H5.31469V3.45918H4.26038V2.40299H3.29606V3.45918H2.24175V0.305054ZM6.70088 1.35112H5.77275V0.305054H8.68369V1.35112H7.75519V3.45918H6.70088V1.35112ZM9.14569 0.305054H10.2448L10.9211 1.41337L11.5967 0.305054H12.6964V3.45918H11.6462V1.8958L10.9211 3.01724H10.9028L10.1771 1.8958V3.45918H9.1455L9.14569 0.305054ZM13.2212 0.305054H14.2757V2.41668H15.7583V3.45937H13.2212V0.305054Z" fill="white"/>
</svg>
