<svg width="18" height="14" viewBox="0 0 18 14" fill="none" xmlns="http://www.w3.org/2000/svg">
<path d="M4.22475 0.975999H7.038V8.8615C7.038 12.415 5.33475 13.6555 2.61375 13.6555C1.94775 13.6555 1.09575 13.5445 0.540749 13.3592L0.855748 11.0822C1.24425 11.212 1.7445 11.3042 2.2995 11.3042C3.4845 11.3042 4.22475 10.7672 4.22475 8.84275V0.975999ZM9.48075 10.5647C10.221 10.9532 11.406 11.3425 12.609 11.3425C13.905 11.3425 14.5897 10.8055 14.5897 9.973C14.5897 9.214 13.9972 8.75125 12.498 8.233C10.425 7.49275 9.0555 6.34525 9.0555 4.51225C9.0555 2.38375 10.851 0.773499 13.7752 0.773499C15.2002 0.773499 16.2187 1.051 16.959 1.40275L16.3297 3.661C15.8482 3.42025 14.9415 3.0685 13.7385 3.0685C12.5167 3.0685 11.9242 3.64225 11.9242 4.2715C11.9242 5.06725 12.609 5.419 14.238 6.04825C16.4407 6.86275 17.4585 8.01025 17.4585 9.787C17.4585 11.8787 15.867 13.6555 12.4425 13.6555C11.0175 13.6555 9.6105 13.267 8.907 12.8777L9.48075 10.5647Z" fill="white"/>
</svg>
