<svg width="22" height="21" viewBox="0 0 22 21" fill="none" xmlns="http://www.w3.org/2000/svg">
<path d="M21.425 8.12094C21.3342 7.84099 21.163 7.59394 20.9328 7.41057C20.7026 7.2272 20.4235 7.11561 20.1303 7.08969L14.5625 6.60969L12.38 1.41969C12.2664 1.14736 12.0747 0.914742 11.8291 0.75112C11.5836 0.587498 11.2951 0.500191 11 0.500191C10.7049 0.500191 10.4164 0.587498 10.1709 0.75112C9.9253 0.914742 9.73364 1.14736 9.62001 1.41969L7.44407 6.60969L1.8697 7.0925C1.57535 7.11724 1.29487 7.22832 1.06341 7.41183C0.831947 7.59534 0.659819 7.8431 0.568607 8.12404C0.477396 8.40499 0.471161 8.70661 0.550686 8.99108C0.630211 9.27555 0.791954 9.53021 1.01563 9.72313L5.2447 13.4188L3.9772 18.9069C3.91017 19.1941 3.9293 19.4947 4.03218 19.771C4.13506 20.0474 4.31713 20.2874 4.55563 20.4608C4.79413 20.6343 5.07847 20.7336 5.37311 20.7464C5.66775 20.7591 5.95961 20.6847 6.2122 20.5325L10.9934 17.6263L15.785 20.5325C16.0376 20.6847 16.3295 20.7591 16.6241 20.7464C16.9187 20.7336 17.2031 20.6343 17.4416 20.4608C17.6801 20.2874 17.8621 20.0474 17.965 19.771C18.0679 19.4947 18.087 19.1941 18.02 18.9069L16.7534 13.4131L20.9816 9.72313C21.2052 9.52955 21.3666 9.27416 21.4455 8.98908C21.5244 8.70401 21.5173 8.40197 21.425 8.12094ZM19.9981 8.58969L15.77 12.2797C15.5642 12.4587 15.4111 12.6904 15.3272 12.9499C15.2433 13.2094 15.2317 13.4869 15.2938 13.7525L16.5641 19.25L11.7763 16.3438C11.5427 16.2015 11.2744 16.1263 11.0009 16.1263C10.7274 16.1263 10.4592 16.2015 10.2256 16.3438L5.44438 19.25L6.70626 13.7563C6.76827 13.4907 6.7567 13.2132 6.67279 12.9537C6.58887 12.6942 6.43579 12.4624 6.23001 12.2834L2.00001 8.59532C1.99967 8.59251 1.99967 8.58968 2.00001 8.58688L7.57251 8.105C7.84457 8.08102 8.10493 7.98322 8.32549 7.82213C8.54605 7.66105 8.71844 7.44281 8.82407 7.19094L11 2.0075L13.175 7.19094C13.2806 7.44281 13.453 7.66105 13.6736 7.82213C13.8942 7.98322 14.1545 8.08102 14.4266 8.105L20 8.58688C20 8.58688 20 8.5925 20 8.59344L19.9981 8.58969Z" fill="white"/>
</svg>
